<?xml version="1.0"?>
<svg xmlns="http://www.w3.org/2000/svg" viewBox="0 0 64 64" width="512" height="512"><g id="Computer_destop" data-name="Computer destop"><path d="M5,35H37a2,2,0,0,0,2-2V29H3v4A2,2,0,0,0,5,35Z" style="fill:#006df0"/><path d="M39,9a2,2,0,0,0-2-2H5A2,2,0,0,0,3,9v2H39Z" style="fill:#006df0"/><rect x="3" y="11" width="36" height="18" style="fill:#c2dff6"/><path d="M61,5V43H43V5a2.006,2.006,0,0,1,2-2H59A2.006,2.006,0,0,1,61,5Z" style="fill:#57a4ff"/><polygon points="16 43 26 43 24 35 18 35 16 43" style="fill:#ffcd00"/><rect x="7" y="47" width="36" height="14" rx="2" style="fill:#a7a9ac"/><path d="M53,49a4,4,0,0,0-4,4v4a4,4,0,0,0,8,0V53A4,4,0,0,0,53,49Z" style="fill:#ff3051"/><rect x="47" y="7" width="10" height="4" style="fill:#ff3051"/><polygon points="3 11 3 28.922 26.717 11 3 11" style="fill:#d1e7f8"/><rect x="20" y="24" width="2" height="2"/><rect x="24" y="24" width="2" height="2"/><rect x="16" y="24" width="2" height="2"/><rect x="51" y="38" width="2" height="2"/><rect x="55" y="38" width="2" height="2"/><rect x="47" y="38" width="2" height="2"/><path d="M59,2H45a3,3,0,0,0-3,3V42H36v2H62V5A3,3,0,0,0,59,2Zm1,40H44V5a1,1,0,0,1,1-1H59a1,1,0,0,1,1,1Z"/><path d="M15.219,42H12v2H30V42H26.781l-1.5-6H37a3,3,0,0,0,3-3V9a3,3,0,0,0-3-3H5A3,3,0,0,0,2,9V33a3,3,0,0,0,3,3H16.719Zm9.5,0H17.281l1.5-6h4.438ZM38,28H4V12H38ZM4,9A1,1,0,0,1,5,8H37a1,1,0,0,1,1,1v1H4ZM5,34a1,1,0,0,1-1-1V30H38v3a1,1,0,0,1-1,1Z"/><rect x="32" y="42" width="2" height="2"/><rect x="8" y="42" width="2" height="2"/><path d="M41,46H9a3,3,0,0,0-3,3V59a3,3,0,0,0,3,3H41a3,3,0,0,0,3-3V49A3,3,0,0,0,41,46Zm1,13a1,1,0,0,1-1,1H9a1,1,0,0,1-1-1V49a1,1,0,0,1,1-1H41a1,1,0,0,1,1,1Z"/><path d="M53,48a5.006,5.006,0,0,0-5,5v4a5,5,0,0,0,10,0V53A5.006,5.006,0,0,0,53,48Zm3,9a3,3,0,0,1-6,0V53a3,3,0,0,1,6,0Z"/><rect x="52" y="51" width="2" height="3"/><rect x="14" y="53" width="2" height="2"/><rect x="10" y="53" width="2" height="2"/><rect x="18" y="53" width="2" height="2"/><rect x="22" y="53" width="2" height="2"/><rect x="26" y="53" width="2" height="2"/><rect x="30" y="53" width="2" height="2"/><rect x="34" y="53" width="2" height="2"/><rect x="38" y="53" width="2" height="2"/><rect x="14" y="50" width="2" height="2"/><rect x="10" y="50" width="2" height="2"/><rect x="18" y="50" width="2" height="2"/><rect x="22" y="50" width="2" height="2"/><rect x="26" y="50" width="2" height="2"/><rect x="30" y="50" width="2" height="2"/><rect x="34" y="50" width="2" height="2"/><rect x="38" y="50" width="2" height="2"/><rect x="14" y="56" width="2" height="2"/><rect x="10" y="56" width="2" height="2"/><rect x="34" y="56" width="2" height="2"/><rect x="18" y="56" width="14" height="2"/><rect x="38" y="56" width="2" height="2"/><path d="M46,12H58V6H46Zm2-4h8v2H48Z"/><rect x="51" y="14" width="2" height="2"/><rect x="51" y="18" width="2" height="2"/></g></svg>
