<?xml version="1.0" encoding="UTF-8"?>
<svg xmlns="http://www.w3.org/2000/svg" xmlns:xlink="http://www.w3.org/1999/xlink" width="512" height="512" viewBox="0 0 60 60" version="1.1"><!-- Generator: Sketch 51.3 (57544) - http://www.bohemiancoding.com/sketch --><title>013 - Letter</title><desc>Created with Sketch.</desc><defs/><g id="Page-1" stroke="none" stroke-width="1" fill="none" fill-rule="evenodd"><g id="013---Letter" fill-rule="nonzero"><path d="M4,59 L55,59 C57.209139,59 59,57.209139 59,55 L59,5 C59,2.790861 57.209139,1 55,1 L8,1 C5.790861,1 4,2.790861 4,5 L4,26.41" id="Shape" fill="#0377BC"/><path d="M5,59 L52.291,59 C54.4185974,58.9170656 56.0776985,57.1277951 56,55 L56,5 C56.0776985,2.87220495 54.4185974,1.08293442 52.291,1 L8.709,1 C6.58140259,1.08293442 4.9223015,2.87220495 5,5 L5,26.41" id="Shape" fill="#02A9F4"/><path d="M53,28 L3,28 L26.68,13.02 C27.16001,12.715189 27.6822747,12.482697 28.23,12.33 C29.9348522,11.8625087 31.7601411,12.2135258 33.17,13.28 L53,28 Z" id="Shape" fill="#DFC49C"/><path d="M50,28 L3,28 L26.68,13.02 C27.16001,12.715189 27.6822747,12.482697 28.23,12.33 C28.9301315,12.5232316 29.5880583,12.8454123 30.17,13.28 L50,28 Z" id="Shape" fill="#FFE0B2"/><rect id="Rectangle-path" fill="#DFC49C" x="1" y="27" width="54" height="32" rx="2"/><rect id="Rectangle-path" fill="#FFE0B2" x="2" y="27" width="50" height="32" rx="2"/><rect id="Rectangle-path" fill="#00838F" x="6" y="41" width="24" height="11" rx="1"/><rect id="Rectangle-path" fill="#00BCD4" x="6" y="41" width="21" height="11" rx="1"/><path d="M53,60 L3,60 C1.34314575,60 2.02906125e-16,58.6568542 0,57 L0,29 C-2.02906125e-16,27.3431458 1.34314575,26 3,26 L53,26 C54.6568542,26 56,27.3431458 56,29 L56,57 C56,58.6568542 54.6568542,60 53,60 Z M3,28 C2.44771525,28 2,28.4477153 2,29 L2,57 C2,57.5522847 2.44771525,58 3,58 L53,58 C53.5522847,58 54,57.5522847 54,57 L54,29 C54,28.4477153 53.5522847,28 53,28 L3,28 Z" id="Shape" fill="#000000"/><path d="M29,53 L7,53 C5.8954305,53 5,52.1045695 5,51 L5,42 C5,40.8954305 5.8954305,40 7,40 L29,40 C30.1045695,40 31,40.8954305 31,42 L31,51 C31,52.1045695 30.1045695,53 29,53 Z M7,42 L7,51 L29,51 L29,42 L7,42 Z" id="Shape" fill="#000000"/><path d="M3,28 C2.54947911,28.0003182 2.15437197,27.6993404 2.03502198,27.2649157 C1.91567199,26.8304911 2.10155182,26.369898 2.489,26.14 L26.172,12.106 C28.5314969,10.7125883 31.4862998,10.8203765 33.738,12.382 L53.571,26.182 C54.0244258,26.4973546 54.1363546,27.1205742 53.821,27.574 C53.5056454,28.0274258 52.8824258,28.1393546 52.429,27.824 L32.6,14.023 C30.9929762,12.9091123 28.8850182,12.8310398 27.2,13.823 L3.51,27.86 C3.35564432,27.9515893 3.17948334,27.9999472 3,28 Z" id="Shape" fill="#000000"/><path d="M36,33 L35,33 C34.4477153,33 34,32.5522847 34,32 C34,31.4477153 34.4477153,31 35,31 L36,31 C36.5522847,31 37,31.4477153 37,32 C37,32.5522847 36.5522847,33 36,33 Z" id="Shape" fill="#000000"/><path d="M46,33 L40,33 C39.4477153,33 39,32.5522847 39,32 C39,31.4477153 39.4477153,31 40,31 L46,31 C46.5522847,31 47,31.4477153 47,32 C47,32.5522847 46.5522847,33 46,33 Z" id="Shape" fill="#000000"/><path d="M51,33 L50,33 C49.4477153,33 49,32.5522847 49,32 C49,31.4477153 49.4477153,31 50,31 L51,31 C51.5522847,31 52,31.4477153 52,32 C52,32.5522847 51.5522847,33 51,33 Z" id="Shape" fill="#000000"/><path d="M36,41 L35,41 C34.4477153,41 34,40.5522847 34,40 C34,39.4477153 34.4477153,39 35,39 L36,39 C36.5522847,39 37,39.4477153 37,40 C37,40.5522847 36.5522847,41 36,41 Z" id="Shape" fill="#000000"/><path d="M46,41 L40,41 C39.4477153,41 39,40.5522847 39,40 C39,39.4477153 39.4477153,39 40,39 L46,39 C46.5522847,39 47,39.4477153 47,40 C47,40.5522847 46.5522847,41 46,41 Z" id="Shape" fill="#000000"/><path d="M51,41 L50,41 C49.4477153,41 49,40.5522847 49,40 C49,39.4477153 49.4477153,39 50,39 L51,39 C51.5522847,39 52,39.4477153 52,40 C52,40.5522847 51.5522847,41 51,41 Z" id="Shape" fill="#000000"/><path d="M43,37 L35,37 C34.4477153,37 34,36.5522847 34,36 C34,35.4477153 34.4477153,35 35,35 L43,35 C43.5522847,35 44,35.4477153 44,36 C44,36.5522847 43.5522847,37 43,37 Z" id="Shape" fill="#000000"/><path d="M51,37 L47,37 C46.4477153,37 46,36.5522847 46,36 C46,35.4477153 46.4477153,35 47,35 L51,35 C51.5522847,35 52,35.4477153 52,36 C52,36.5522847 51.5522847,37 51,37 Z" id="Shape" fill="#000000"/><path d="M55,60 L4,60 C3.44771525,60 3,59.5522847 3,59 C3,58.4477153 3.44771525,58 4,58 L55,58 C56.6568542,58 58,56.6568542 58,55 L58,5 C58,3.34314575 56.6568542,2 55,2 L8,2 C6.34314575,2 5,3.34314575 5,5 L5,26.41 C5,26.9622847 4.55228475,27.41 4,27.41 C3.44771525,27.41 3,26.9622847 3,26.41 L3,5 C3.00330612,2.23994685 5.23994685,0.00330611633 8,0 L55,0 C57.7600532,0.00330611633 59.9966939,2.23994685 60,5 L60,55 C59.9966939,57.7600532 57.7600532,59.9966939 55,60 Z" id="Shape" fill="#000000"/><path d="M39,7 L38,7 C37.4477153,7 37,6.55228475 37,6 C37,5.44771525 37.4477153,5 38,5 L39,5 C39.5522847,5 40,5.44771525 40,6 C40,6.55228475 39.5522847,7 39,7 Z" id="Shape" fill="#000000"/><path d="M49,7 L43,7 C42.4477153,7 42,6.55228475 42,6 C42,5.44771525 42.4477153,5 43,5 L49,5 C49.5522847,5 50,5.44771525 50,6 C50,6.55228475 49.5522847,7 49,7 Z" id="Shape" fill="#000000"/><path d="M54,7 L53,7 C52.4477153,7 52,6.55228475 52,6 C52,5.44771525 52.4477153,5 53,5 L54,5 C54.5522847,5 55,5.44771525 55,6 C55,6.55228475 54.5522847,7 54,7 Z" id="Shape" fill="#000000"/><path d="M49,15 L43,15 C42.4477153,15 42,14.5522847 42,14 C42,13.4477153 42.4477153,13 43,13 L49,13 C49.5522847,13 50,13.4477153 50,14 C50,14.5522847 49.5522847,15 49,15 Z" id="Shape" fill="#000000"/><path d="M54,15 L53,15 C52.4477153,15 52,14.5522847 52,14 C52,13.4477153 52.4477153,13 53,13 L54,13 C54.5522847,13 55,13.4477153 55,14 C55,14.5522847 54.5522847,15 54,15 Z" id="Shape" fill="#000000"/><path d="M46,11 L38,11 C37.4477153,11 37,10.5522847 37,10 C37,9.44771525 37.4477153,9 38,9 L46,9 C46.5522847,9 47,9.44771525 47,10 C47,10.5522847 46.5522847,11 46,11 Z" id="Shape" fill="#000000"/><path d="M54,11 L50,11 C49.4477153,11 49,10.5522847 49,10 C49,9.44771525 49.4477153,9 50,9 L54,9 C54.5522847,9 55,9.44771525 55,10 C55,10.5522847 54.5522847,11 54,11 Z" id="Shape" fill="#000000"/></g></g></svg>
