<svg height="512pt" viewBox="0 -9 512 512" width="512pt" xmlns="http://www.w3.org/2000/svg"><path d="m503.464844 200.535156v174.929688c-.027344 9.414062-7.652344 17.039062-17.066406 17.070312h-324.265626l-64-264.535156h332.800782c40.058594 0 72.53125 32.472656 72.53125 72.535156zm0 0" fill="#607d89"/><path d="m477.867188 200.535156v174.929688c.074218 9.316406-7.386719 16.941406-16.699219 17.070312h-304.691407l-62.609374-264.535156h313.042968c18.90625.019531 37 7.683594 50.167969 21.246094 13.375 13.71875 20.839844 32.128906 20.789063 51.289062zm0 0" fill="#cdd6da"/><path d="m170.667969 200.535156v192h-128l-17.066407-127.574218v-64.425782c.027344-40.050781 32.484376-72.507812 72.53125-72.535156 2.851563-.003906 5.703126.167969 8.535157.511719 36.5 4.324219 63.996093 35.265625 64 72.023437zm0 0" fill="#607d89"/><path d="m256 168.703125v-160.167969h-25.601562c-4.710938 0-8.53125 3.820313-8.53125 8.53125v151.636719" fill="#607d89"/><path d="m324.265625 76.800781h-68.265625v-68.265625h68.265625c1.617187 0 3.09375.910156 3.816406 2.355469.722657 1.445313.566407 3.175781-.402343 4.46875l-18.558594 24.746094c-1.140625 1.519531-1.140625 3.605469 0 5.121093l18.558594 24.746094c.96875 1.292969 1.125 3.023438.402343 4.46875-.722656 1.445313-2.199219 2.359375-3.816406 2.359375zm0 0" fill="#f24335"/><path d="m281.601562 392.535156v93.863282h-25.601562c-4.710938 0-8.535156-3.820313-8.535156-8.53125v-85.332032zm0 0" fill="#4e342e"/><path d="m332.800781 392.535156v85.332032c0 4.710937-3.820312 8.53125-8.535156 8.53125h-42.664063v-93.863282zm0 0" fill="#795548"/><path d="m170.667969 292.265625v72.960937l-45.570313-36.523437zm0 0" fill="#ff9601"/><path d="m170.667969 365.226562v27.308594h-145.066407c-4.257812.050782-8.367187-1.574218-11.4375-4.523437l74.070313-59.222657 12.289063 9.8125c3.609374 2.816407 8.675781 2.816407 12.289062 0l12.285156-9.898437zm0 0" fill="#f37c00"/><path d="m88.234375 328.789062-74.070313 59.222657c-3.597656-3.175781-5.648437-7.746094-5.628906-12.546875v-93.4375c-.019531-4.796875 2.03125-9.371094 5.628906-12.542969l11.4375 9.128906zm0 0" fill="#ff9601"/><path d="m170.667969 264.960938v27.304687l-45.570313 36.4375-12.285156 9.898437c-3.613281 2.816407-8.679688 2.816407-12.289062 0l-12.289063-9.8125-62.632813-50.175781-11.4375-9.128906c3.089844-2.921875 7.183594-4.539063 11.4375-4.523437zm0 0" fill="#fcbf08"/><path d="m264.535156 187.734375c0 14.136719-11.464844 25.597656-25.601562 25.597656-14.140625 0-25.601563-11.460937-25.601563-25.597656 0-14.140625 11.460938-25.601563 25.601563-25.601563 14.136718 0 25.601562 11.460938 25.601562 25.601563zm0 0" fill="#37474f"/><path d="m430.933594 119.464844h-166.398438v-34.132813h59.730469c4.847656 0 9.28125-2.738281 11.449219-7.074219 2.167968-4.335937 1.699218-9.527343-1.207032-13.40625l-16.640624-22.183593 16.640624-22.1875c2.90625-3.878907 3.375-9.070313 1.207032-13.40625-2.167969-4.335938-6.601563-7.074219-11.449219-7.074219h-93.867187c-9.425782 0-17.066407 7.640625-17.066407 17.066406v102.398438h-115.199219c-42.519531.070312-77.769531 32.960937-80.777343 75.375-.136719.46875-.234375.945312-.289063 1.425781 0 .308594.144532.5625.171875.855469 0 1.140625-.171875 2.261718-.171875 3.414062v57.460938c-10.191406 3.605468-17.0234372 13.21875-17.066406 24.03125v93.4375c0 14.140625 11.460938 25.601562 25.601562 25.601562h213.332032v76.800782c0 9.425781 7.640625 17.066406 17.066406 17.066406h68.265625c9.425781 0 17.066406-7.640625 17.066406-17.066406v-76.800782h145.066407c14.140624 0 25.601562-11.460937 25.601562-25.601562v-174.929688c0-44.773437-36.292969-81.070312-81.066406-81.070312zm-192 51.203125c9.425781 0 17.066406 7.640625 17.066406 17.066406s-7.640625 17.066406-17.066406 17.066406c-9.425782 0-17.066406-7.640625-17.066406-17.066406s7.640624-17.066406 17.066406-17.066406zm63.359375-120.320313 13.441406 17.917969h-51.199219v-51.199219h51.199219l-13.441406 17.921875c-3.386719 4.558594-3.386719 10.800781 0 15.359375zm-71.894531-33.28125h17.066406v137.746094c-5.574219-1.617188-11.492188-1.617188-17.066406 0zm-132.265626 119.46875c35.347657 0 64 28.652344 64 64v55.890625h-128v-55.890625c.039063-35.332031 28.667969-63.964844 64-64zm-81.066406 238.222656v-92.023437l57.53125 46.082031zm15.761719-101.265624h129.304687v14.679687l-54.613281 43.714844c-.5.378906-1.183593.398437-1.707031.050781zm129.304687 36.539062v37.421875l-23.347656-18.714844zm-119.464843 73.96875h-9.816407l55.410157-44.28125 6.996093 5.601562c3.242188 2.554688 7.253907 3.941407 11.382813 3.941407 4.183594-.011719 8.242187-1.421875 11.527344-4.011719l6.964843-5.582031 37 29.65625v14.675781zm213.332031 17.066406h17.066406v76.800782h-17.066406zm68.265625 76.800782h-34.132813v-76.800782h34.132813zm170.667969-102.402344c0 4.714844-3.820313 8.535156-8.535156 8.535156h-307.199219v-183.464844c0-1.214844-.117188-2.398437-.179688-3.601562.074219-.21875.132813-.441406.179688-.667969-.046875-.359375-.121094-.714844-.210938-1.066406-1.214843-19.617188-9.574219-38.109375-23.492187-51.984375-2.421875-2.382813-4.984375-4.617188-7.683594-6.679688h65.519531v28.859375c-12.101562 13.722657-11.230469 34.546875 1.976563 47.210938 13.203125 12.664062 34.046875 12.664062 47.25 0 13.207031-12.664063 14.078125-33.488281 1.976562-47.210938v-28.859375h166.398438c35.347656 0 64 28.652344 64 64zm0 0"/><path d="m263.203125 247.816406c-5.78125-1.359375-11.734375 1.429688-14.386719 6.742188-.179687.359375-.335937.734375-.460937 1.117187l-9.421875 28.320313-9.386719-28.320313c-.128906-.382812-.28125-.757812-.460937-1.117187-2.632813-5.351563-8.609376-8.175782-14.414063-6.8125-5.804687 1.363281-9.898437 6.558594-9.871094 12.519531v89.601563c0 4.710937 3.820313 8.53125 8.53125 8.53125 4.714844 0 8.535157-3.820313 8.535157-8.53125v-63.148438l5.121093 15.496094c.125.382812.28125.757812.460938 1.121094 2.164062 4.339843 6.597656 7.082031 11.449219 7.082031 4.851562 0 9.285156-2.742188 11.453124-7.082031.179688-.363282.332032-.738282.460938-1.121094l5.1875-15.496094v63.148438c0 4.710937 3.820312 8.53125 8.535156 8.53125 4.710938 0 8.53125-3.820313 8.53125-8.53125v-89.601563c.015625-5.941406-4.078125-11.105469-9.863281-12.449219zm0 0"/><path d="m328.082031 256.90625c-1.546875-5.601562-6.671875-9.453125-12.480469-9.390625-5.808593.066406-10.84375 4.03125-12.265624 9.660156l-21.503907 90.726563c-.984375 4.546875 1.851563 9.039062 6.375 10.109375 4.523438 1.070312 9.074219-1.679688 10.230469-6.183594l6.527344-27.5625h21.539062l6.527344 27.5625c.910156 3.851563 4.347656 6.570313 8.300781 6.570313.664063 0 1.328125-.078126 1.972657-.230469 4.574218-1.082031 7.40625-5.660157 6.339843-10.238281zm-19.074219 50.292969 6.726563-28.414063 6.722656 28.414063zm0 0"/><path d="m460.800781 341.332031h-25.601562v-85.332031c0-4.710938-3.820313-8.535156-8.53125-8.535156-4.714844 0-8.535157 3.824218-8.535157 8.535156v93.867188c0 4.710937 3.820313 8.53125 8.535157 8.53125h34.132812c4.710938 0 8.53125-3.820313 8.53125-8.53125 0-4.714844-3.820312-8.535157-8.53125-8.535157zm0 0"/><path d="m401.066406 264.535156c4.714844 0 8.535156-3.824218 8.535156-8.535156s-3.820312-8.535156-8.535156-8.535156h-34.132812c-4.714844 0-8.535156 3.824218-8.535156 8.535156s3.820312 8.535156 8.535156 8.535156h8.53125v76.796875h-8.53125c-4.714844 0-8.535156 3.820313-8.535156 8.535157 0 4.710937 3.820312 8.53125 8.535156 8.53125h34.132812c4.714844 0 8.535156-3.820313 8.535156-8.53125 0-4.714844-3.820312-8.535157-8.535156-8.535157h-8.53125v-76.796875zm0 0"/><path d="m401.066406 162.132812h-93.867187c-4.710938 0-8.53125 3.820313-8.53125 8.535157 0 4.710937 3.820312 8.53125 8.53125 8.53125h93.867187c4.714844 0 8.535156-3.820313 8.535156-8.53125 0-4.714844-3.820312-8.535157-8.535156-8.535157zm0 0"/><path d="m435.199219 179.199219h8.535156c4.710937 0 8.53125-3.820313 8.53125-8.53125 0-4.714844-3.820313-8.535157-8.53125-8.535157h-8.535156c-4.710938 0-8.53125 3.820313-8.53125 8.535157 0 4.710937 3.820312 8.53125 8.53125 8.53125zm0 0"/></svg>